<?xml version="1.0" standalone="no"?><!DOCTYPE svg PUBLIC "-//W3C//DTD SVG 1.1//EN" "http://www.w3.org/Graphics/SVG/1.1/DTD/svg11.dtd"><svg t="1671957094076" class="icon" viewBox="0 0 1024 1024" version="1.1" xmlns="http://www.w3.org/2000/svg" p-id="1514" xmlns:xlink="http://www.w3.org/1999/xlink" width="200" height="200"><path d="M952.14301275 822.68918518a25.89076502 25.89076502 0 0 1 25.89076503 25.89076504v51.78153126a25.89076502 25.89076502 0 0 1-25.89076503 25.89076503h-414.25224773a25.89076502 25.89076502 0 0 1-25.89076502-25.89076503v-51.78153126a25.89076502 25.89076502 0 0 1 25.89076502-25.89076504h414.25224773zM628.24953719 42.49685925a25.89076502 25.89076502 0 0 1 36.60954192 0l256.31857778 256.31857777a25.89076502 25.89076502 0 0 1 0 36.60954314L363.38700683 893.26741216a25.89076502 25.89076502 0 0 1-20.71261275 7.45654045l-234.881024-21.38577306a25.89076502 25.89076502 0 0 1-23.45703349-23.40525155l-21.33399112-234.98458666a25.89076502 25.89076502 0 0 1 7.45654045-20.60905009z m18.27887999 128.21107083l-477.11502579 477.11502578 12.2204421 134.26950873 134.26950873 12.16866016 314.88348917-314.93527113-144.26334457-144.26334459 73.21908504-73.21908504 144.26334459 144.26334579 88.96066961-88.96067083-146.43816888-146.43816887z" fill="#ffffff" p-id="1515"></path></svg>