<?xml version="1.0" standalone="no"?><!DOCTYPE svg PUBLIC "-//W3C//DTD SVG 1.1//EN" "http://www.w3.org/Graphics/SVG/1.1/DTD/svg11.dtd"><svg t="1669085105288" class="icon" viewBox="0 0 1024 1024" version="1.1" xmlns="http://www.w3.org/2000/svg" p-id="1142" xmlns:xlink="http://www.w3.org/1999/xlink" width="200" height="200"><path d="M794.645333 117.333333a32 32 0 0 1 31.850667 28.928l0.149333 3.072-0.021333 128h128a32 32 0 0 1 3.093333 63.850667L954.666667 341.333333h-128.021334v128a32 32 0 0 1-63.829333 3.072L762.645333 469.333333l-0.021333-128h-128a32 32 0 0 1-3.072-63.850666L634.666667 277.333333h127.978666V149.333333a32 32 0 0 1 32-32z" fill="#ffffff" p-id="1143"></path><path d="M481.92 34.56l2.944 1.472 108.864 60.458667a32 32 0 0 1-28.330667 57.322666l-2.773333-1.365333L469.333333 100.608 151.232 277.312 469.333333 454.037333l91.221334-50.666666a32 32 0 0 1 41.898666 9.813333l1.621334 2.624a32 32 0 0 1-9.813334 41.898667l-2.624 1.621333-90.304 50.154667V905.6l320-177.792v-122.709333a32 32 0 0 1 28.928-31.850667l3.072-0.149333a32 32 0 0 1 31.850667 28.906666l0.149333 3.093334V746.666667a32 32 0 0 1-13.781333 26.304l-2.688 1.664-384 213.333333a32 32 0 0 1-28.117333 1.450667l-2.944-1.450667-384-213.333333a32 32 0 0 1-16.32-24.832L53.333333 746.666667V277.333333a32.32 32.32 0 0 1 1.173334-8.64l0.256-0.853333c1.834667-6.037333 5.461333-11.584 10.901333-15.786667l0.64-0.469333a16.362667 16.362667 0 0 1 0.853333-0.597333l0.768-0.512a32 32 0 0 1 1.024-0.64l0.853334-0.469334 384-213.333333a32 32 0 0 1 28.117333-1.450667zM117.333333 331.733333v396.117334l320 177.770666V509.504l-320-177.792z" fill="#ffffff" p-id="1144"></path></svg>