<?xml version="1.0" standalone="no"?><!DOCTYPE svg PUBLIC "-//W3C//DTD SVG 1.1//EN" "http://www.w3.org/Graphics/SVG/1.1/DTD/svg11.dtd"><svg t="1669083067290" class="icon" viewBox="0 0 1024 1024" version="1.1" xmlns="http://www.w3.org/2000/svg" p-id="1049" xmlns:xlink="http://www.w3.org/1999/xlink" width="200" height="200"><path d="M821.47555555 56.88888889H202.52444445C102.4 56.88888889 20.48 138.80888889 20.48 238.93333333v546.13333334c0 100.12444445 81.92 182.04444445 182.04444445 182.04444444h618.9511111c100.12444445 0 182.04444445-81.92 182.04444445-182.04444444V238.93333333c0-100.12444445-81.92-182.04444445-182.04444445-182.04444444z m109.22666667 728.17777778c0 60.07466667-49.152 109.22666667-109.22666667 109.22666666H202.52444445c-60.07466667 0-109.22666667-49.152-109.22666667-109.22666666V238.93333333c0-60.07466667 49.152-109.22666667 109.22666667-109.22666666h618.9511111c60.07466667 0 109.22666667 49.152 109.22666667 109.22666666v546.13333334z" fill="#ffffff" p-id="1050"></path><path d="M329.95555555 475.59111111c60.07466667 0 109.22666667-49.152 109.22666667-109.22666666s-49.152-109.22666667-109.22666667-109.22666667-109.22666667 49.152-109.22666666 109.22666667 49.152 109.22666667 109.22666666 109.22666666z m0-145.63555556c20.02488889 0 36.40888889 16.384 36.4088889 36.4088889s-16.384 36.40888889-36.4088889 36.40888888-36.40888889-16.384-36.40888888-36.40888888 16.384-36.40888889 36.40888888-36.4088889zM856.064 761.40088889l-3.64088889-3.64088889-202.06933333-202.06933333c-29.12711111-29.12711111-74.63822222-29.12711111-103.76533333 0l-91.02222223 91.02222222-41.87022222-41.87022222c-29.12711111-29.12711111-74.63822222-29.12711111-103.76533333 0l-152.91733334 152.91733333c-5.46133333 7.28177778-9.10222222 16.384-9.10222222 27.30666667 0 20.02488889 16.384 36.40888889 36.40888889 36.40888888 10.92266667 0 18.20444445-3.64088889 25.48622222-10.92266666l152.91733333-152.91733334 152.91733334 152.91733334c7.28177778 7.28177778 16.384 10.92266667 27.30666666 10.92266666 20.02488889 0 36.40888889-16.384 36.4088889-36.40888888 0-10.92266667-5.46133333-20.02488889-10.92266667-27.30666667l-60.07466667-60.07466667 91.02222222-91.02222222 205.71022222 205.71022222c7.28177778 5.46133333 14.56355555 9.10222222 23.66577778 9.10222222 20.02488889 0 36.40888889-16.384 36.40888889-36.40888888 0-9.10222222-3.64088889-18.20444445-9.10222222-23.66577778z" fill="#ffffff" p-id="1051"></path></svg>