<?xml version="1.0" standalone="no"?><!DOCTYPE svg PUBLIC "-//W3C//DTD SVG 1.1//EN" "http://www.w3.org/Graphics/SVG/1.1/DTD/svg11.dtd"><svg t="1669565024493" class="icon" viewBox="0 0 1024 1024" version="1.1" xmlns="http://www.w3.org/2000/svg" p-id="1206" width="200" height="200"><path d="M139.17297778 139.17297778v4.66033777c2.79620267 5.69596799 9.32067555 12.42756741 0-4.66033777zM512 791.62026667h279.62026667V512h-93.20675556v186.41351111H512z" fill="#ffffff" p-id="1207"></path><path d="M903.93440711 45.96622222H120.06559289A74.15115261 74.15115261 0 0 0 45.96622222 120.16915555v783.6616889c0 40.95919051 33.14018016 74.15115261 74.09937067 74.20293333h783.86881422A74.15115261 74.15115261 0 0 0 978.03377778 903.83084445V120.16915555c0-40.95919051-33.14018016-74.15115261-74.09937067-74.20293333zM884.82702222 884.82702222H139.17297778V143.83331555c-1.39810133-2.43373155-1.86413511-4.66033778 0-4.66033777h745.65404444v745.65404444z" fill="#ffffff" p-id="1208"></path><path d="M325.58648889 325.58648889H512V232.37973333H232.37973333V512h93.20675556z" fill="#ffffff" p-id="1209"></path></svg>