<?xml version="1.0" standalone="no"?><!DOCTYPE svg PUBLIC "-//W3C//DTD SVG 1.1//EN" "http://www.w3.org/Graphics/SVG/1.1/DTD/svg11.dtd"><svg t="1672565288571" class="icon" viewBox="0 0 1024 1024" version="1.1" xmlns="http://www.w3.org/2000/svg" p-id="1796" width="200" height="200"><path d="M931.13912889 208.437248l-112.25588622-110.91603911a123.60963413 123.60963413 0 0 0-87.43958756-35.94285511H195.15528533c-68.62347378 0-124.43101867 55.80754489-124.43101866 124.43101867v678.31216355c0 68.62347378 55.80754489 124.43101867 124.43101866 124.43101867h648.544256c68.62347378 0 124.43101867-55.80754489 124.43101867-124.43101867v-567.39612445c0-33.030144-13.45672533-65.24472889-36.99143111-88.48816355z m-247.40568178-65.30298311v265.46449066c0 11.47608178-9.32067555 20.73850311-20.73850311 20.73850312H382.38435555c-11.41782755 0-20.73850311-9.32067555-20.7385031-20.73850312V143.13426489h322.08759466z m202.84120178 721.18727111c0 23.65121422-19.22389333 42.87510755-42.87510756 42.87510755H195.15528533c-23.65121422 0-42.87510755-19.22389333-42.87510755-42.87510755V186.00937245c0-23.65121422 19.22389333-42.87510755 42.87510755-42.87510756h84.87640178v265.46449066c0 56.44834133 45.90432711 102.29441422 102.29441422 102.29441423h280.61058845c56.44834133 0 102.29441422-45.90432711 102.29441422-102.29441423V159.21243022l108.527616 107.24602311a43.09064818 43.09064818 0 0 1 12.75767467 30.46695822v567.39612445z" fill="#ffffff" p-id="1797"></path><path d="M592.39082667 366.94698667h-62.62328889c-22.544384 0-40.77795555-18.23357155-40.77795556-40.77795556s18.23357155-40.77795555 40.77795556-40.77795556h62.62328889c22.544384 0 40.77795555 18.23357155 40.77795555 40.77795556s-18.23357155 40.77795555-40.77795555 40.77795556z" fill="#ffffff" p-id="1798"></path></svg>