<?xml version="1.0" standalone="no"?><!DOCTYPE svg PUBLIC "-//W3C//DTD SVG 1.1//EN" "http://www.w3.org/Graphics/SVG/1.1/DTD/svg11.dtd"><svg t="1671776957597" class="icon" viewBox="0 0 1024 1024" version="1.1" xmlns="http://www.w3.org/2000/svg" p-id="1454" xmlns:xlink="http://www.w3.org/1999/xlink" width="200" height="200"><path d="M818.13333333 36.58666667H206.93333333c-94.08 0-170.66666667 76.58666667-170.66666666 170.66666666v607.04c0 94.08 76.58666667 170.66666667 170.66666666 170.66666667h611.2c94.08 0 170.66666667-76.58666667 170.66666667-170.66666667V207.25333333c0-94.08-76.58666667-170.66666667-170.66666667-170.66666666z m96 777.70666666c0 52.90666667-43.09333333 96-96 96H206.93333333c-52.90666667 0-96-43.09333333-96-96V207.25333333c0-52.90666667 43.09333333-96 96-96h611.2c52.90666667 0 96 43.09333333 96 96v607.04z" fill="#ffffff" p-id="1455"></path><path d="M668.80094815 293.78939259h-315.5437037c-23.30168889 0-42.23431111 19.05398518-42.23431112 42.23431111 0 23.30168889 19.05398518 42.23431111 42.23431112 42.23431112h116.50844444v310.68918518c0 23.30168889 19.05398518 42.23431111 42.23431111 42.23431111 23.30168889 0 42.23431111-19.05398518 42.23431111-42.23431111v-310.68918518h114.44527407c23.30168889 0 42.23431111-19.05398518 42.23431112-42.23431112 0.12136297-23.18032592-18.93262222-42.23431111-42.11294815-42.23431111z" fill="#ffffff" p-id="1456"></path></svg>